<svg width="25" height="37" viewBox="0 0 25 37" fill="none" xmlns="http://www.w3.org/2000/svg">
<path d="M9.78733 36.1246C8.891 35.5743 8.63941 34.9767 8.68658 33.4514L8.73376 32.1148L9.59863 31.9104C10.6207 31.6746 14.3946 31.7532 15.3066 32.0205L15.8884 32.2092V33.42C15.8884 34.8509 15.6054 35.5428 14.8034 36.0774C14.316 36.4077 14.0801 36.4391 12.2875 36.4391C10.5892 36.4391 10.2276 36.3919 9.78733 36.1246Z" fill="#FF6430"/>
<path d="M9.63003 29.6566C9.17403 29.5308 8.76515 29.405 8.71798 29.3578C8.65508 29.3106 8.52928 28.8074 8.40349 28.2571C7.88458 25.7412 7.09835 24.436 4.40944 21.6056C1.56329 18.6179 0.714156 17.2027 0.226696 14.6553C-0.826851 9.16743 1.86206 3.69527 6.83103 1.25796C8.74943 0.298767 10.0545 0 12.3503 0C15.9513 0 18.7345 1.22651 21.2819 3.91542C22.5556 5.28346 23.7035 7.32765 24.1595 9.04163C24.757 11.3532 24.5998 14.4352 23.7664 16.5894C23.1688 18.1462 22.3512 19.2783 20.134 21.6056C17.4451 24.436 16.6589 25.7412 16.14 28.2571C16.0142 28.8074 15.8884 29.3106 15.8412 29.3578C15.3537 29.8295 11.2024 30.034 9.63003 29.6566Z" fill="white"/>
</svg>
