<svg width="87" height="139" viewBox="0 0 87 139" fill="none" xmlns="http://www.w3.org/2000/svg">
<path d="M34.4982 137.47C31.3432 135.39 30.4576 133.131 30.6236 127.366L30.7897 122.313L33.8339 121.541C37.4317 120.649 50.7159 120.946 53.9262 121.957L55.9742 122.67V127.247C55.9742 132.656 54.9779 135.271 52.155 137.292C50.4391 138.54 49.6089 138.659 43.2989 138.659C37.321 138.659 36.048 138.481 34.4982 137.47Z" fill="#00072C"/>
<path d="M33.9446 113.021C32.3395 112.546 30.9004 112.07 30.7343 111.892C30.5129 111.714 30.0701 109.811 29.6273 107.731C27.8007 98.2209 25.0332 93.2874 15.5683 82.5884C5.54981 71.295 2.56088 65.9455 0.845014 56.3164C-2.86347 35.5722 6.60147 14.8875 24.0922 5.67443C30.845 2.04865 35.4391 0.919312 43.5203 0.919312C56.1956 0.919312 65.9926 5.55555 74.9594 15.7196C79.4428 20.8908 83.4834 28.6179 85.0886 35.0967C87.1919 43.8342 86.6384 55.4843 83.7048 63.6274C81.6015 69.5119 78.7232 73.7915 70.9188 82.5884C61.4539 93.2874 58.6863 98.2209 56.8598 107.731C56.417 109.811 55.9742 111.714 55.8081 111.892C54.0922 113.675 39.4797 114.448 33.9446 113.021Z" fill="#FF4000"/>
</svg>
