<?xml version="1.0" encoding="UTF-8" standalone="no"?>
<!DOCTYPE svg PUBLIC "-//W3C//DTD SVG 1.1//EN" "http://www.w3.org/Graphics/SVG/1.1/DTD/svg11.dtd">
<svg width="100%" height="100%" viewBox="0 0 4167 2653" version="1.1" xmlns="http://www.w3.org/2000/svg" xmlns:xlink="http://www.w3.org/1999/xlink" xml:space="preserve" xmlns:serif="http://www.serif.com/" style="fill-rule:evenodd;clip-rule:evenodd;stroke-linejoin:round;stroke-miterlimit:2;">
    <rect id="Artboard1" x="0" y="0" width="4166.67" height="2652.92" style="fill:none;" />
    <clipPath id="_clip1">
        <rect x="0" y="0" width="4166.67" height="2652.92" />
    </clipPath>
    <g clip-path="url(#_clip1)">
        <g>
            <ellipse cx="2579.36" cy="937.207" rx="150.215" ry="150.384" style="fill:#b0413e;" />
            <path d="M2500.22,542.201c177.891,0 322.316,144.425 322.316,322.316c0,177.891 -144.425,322.316 -322.316,322.316c-177.891,0 -322.316,-144.425 -322.316,-322.316c0,-177.891 144.425,-322.316 322.316,-322.316Zm0,83.507c131.802,0 238.809,107.007 238.809,238.809c0,131.802 -107.007,238.809 -238.809,238.809c-131.802,0 -238.809,-107.007 -238.809,-238.809c0,-131.802 107.007,-238.809 238.809,-238.809Z" style="fill:#b0413e;" />
            <path d="M2083.33,373.62c459.93,0 833.334,-263.87 833.334,196.059c0,459.93 -373.404,833.334 -833.334,833.334c-459.929,0 -833.333,-373.404 -833.333,-833.334c0,-459.929 373.404,-196.059 833.333,-196.059Zm0,83.334c231.768,0 441.791,-66.033 593.816,-74.576c48.649,-2.733 89.484,-2.608 116.699,23.154c30.439,28.813 39.485,81.199 39.485,164.147c0,413.937 -336.063,750 -750,750c-413.936,0 -750,-336.063 -750,-750c0,-82.948 9.047,-135.334 39.485,-164.147c27.216,-25.762 68.051,-25.887 116.7,-23.154c152.024,8.543 362.048,74.576 593.815,74.576Z" style="fill:#b0413e;" />
            <path d="M2083.33,365.964c1149.82,0 2083.33,-946.108 2083.33,203.715c0,1149.82 -933.511,2083.33 -2083.33,2083.33c-1149.82,0 -2083.33,-933.511 -2083.33,-2083.33c0,-1149.82 933.51,-203.715 2083.33,-203.715Zm0,83.333c582.516,0 1110.67,-237.714 1492.76,-331.74c160.032,-39.381 289.796,-58.219 379.323,3.735c39.797,27.541 68.797,72.106 89.753,135.619c25.622,77.658 38.161,180.163 38.161,312.768c0,1103.83 -896.17,2000 -2000,2000c-1103.83,0 -2000,-896.17 -2000,-2000c0,-132.605 12.539,-235.11 38.162,-312.768c20.955,-63.513 49.956,-108.078 89.753,-135.619c89.527,-61.954 219.291,-43.116 379.322,-3.735c382.093,94.026 910.248,331.74 1492.76,331.74Z" style="fill:#b0413e;" />
        </g>
    </g>
</svg>